<svg width="512" height="512" viewBox="0 0 512 512" fill="none" xmlns="http://www.w3.org/2000/svg">
  <!-- Background circle with gradient -->
  <circle cx="256" cy="256" r="256" fill="#0b1120"/>
  
  <!-- Decorative party circles -->
  <circle cx="120" cy="100" r="20" fill="#0ea5e9" opacity="0.6"/>
  <circle cx="400" cy="120" r="25" fill="#06b6d4" opacity="0.6"/>
  <circle cx="100" cy="380" r="18" fill="#0ea5e9" opacity="0.6"/>
  <circle cx="420" cy="390" r="22" fill="#06b6d4" opacity="0.6"/>
  
  <!-- Main music note -->
  <g transform="translate(180, 100)">
    <!-- Note stem -->
    <rect x="100" y="40" width="18" height="180" rx="9" fill="#0ea5e9"/>
    
    <!-- Note flag -->
    <path d="M118 40 Q160 30 160 70 Q160 50 118 60 Z" fill="#0ea5e9"/>
    <path d="M118 80 Q150 70 150 105 Q150 90 118 95 Z" fill="#06b6d4"/>
    
    <!-- Note head (oval) -->
    <ellipse cx="91" cy="220" rx="35" ry="28" fill="#0ea5e9" transform="rotate(-25 91 220)"/>
  </g>
  
  <!-- Secondary smaller music note -->
  <g transform="translate(140, 180)">
    <!-- Note stem -->
    <rect x="50" y="90" width="12" height="120" rx="6" fill="#06b6d4"/>
    
    <!-- Note head (oval) -->
    <ellipse cx="44" cy="210" rx="24" ry="19" fill="#06b6d4" transform="rotate(-25 44 210)"/>
  </g>
  
  <!-- Sparkle/party effects -->
  <g opacity="0.8">
    <!-- Top sparkle -->
    <path d="M340 140 L345 150 L355 155 L345 160 L340 170 L335 160 L325 155 L335 150 Z" fill="#0ea5e9"/>
    
    <!-- Right sparkle -->
    <path d="M380 260 L383 267 L390 270 L383 273 L380 280 L377 273 L370 270 L377 267 Z" fill="#06b6d4"/>
    
    <!-- Bottom sparkle -->
    <path d="M300 360 L304 369 L313 373 L304 377 L300 386 L296 377 L287 373 L296 369 Z" fill="#0ea5e9"/>
  </g>
</svg>





